<svg xmlns="http://www.w3.org/2000/svg" xmlns:xlink="http://www.w3.org/1999/xlink" width="400" height="400" viewBox="0 0 400 400">
<rect data-name="background" width="100%" height="100%" fill="#ffffff"/><g data-name="container" data="container_num:6" fill="#ffdd00" transform="translate(24,24) scale(7.04)"><path xmlns="http://www.w3.org/2000/svg" d="M24.95 0a25 25 0 1 0 25 25 25 25 0 0 0-25-25zm0 46.91a22 22 0 1 1 22-22 22 22 0 0 1-22 21.99z"/><path xmlns="http://www.w3.org/2000/svg" d="M24.95 3.65a21.3 21.3 0 1 0 21.3 21.3 21.33 21.33 0 0 0-21.3-21.3z"/></g><g data-name="icon" fill="#fdf6eb" data="id:6845886" transform="translate(111.71506615862,69.04927657193046) scale(1.7656882535389784)">
    
 <g>
  <path d="m27.062 72.383c-5.8398-5.9883-9.1055-14.02-9.1055-22.383s3.2656-16.395 9.1094-22.383c0.34375-0.35156 0.6875-0.6875 1.0391-1.0195-10.711 5.9688-19.148 14.715-23.289 19.48-2.0078 2.2305-2.0078 5.6133-0.003906 7.8398 4.1406 4.7656 12.578 13.508 23.289 19.48-0.35156-0.32813-0.69531-0.66797-1.0391-1.0156z"/>
  <path d="m95.188 46.078c-4.1406-4.7656-12.578-13.508-23.289-19.48 0.35156 0.32812 0.69922 0.67188 1.0391 1.0195 5.8398 5.9883 9.1055 14.02 9.1055 22.383s-3.2656 16.395-9.1055 22.383c-0.34375 0.35156-0.6875 0.6875-1.0391 1.0195 10.711-5.9688 19.141-14.715 23.289-19.48 2.0039-2.2305 2.0039-5.6133 0-7.8438z"/>
  <path d="m50 20.297c-16.375 0-29.703 13.324-29.703 29.703 0 16.375 13.328 29.703 29.703 29.703s29.703-13.328 29.703-29.703c0-16.379-13.328-29.703-29.703-29.703zm-18.68 30.805 10.051 5.2148h0.003906c0.97656 0.55078 1.3438 1.7773 0.83203 2.7773-0.51562 0.99609-1.7266 1.4102-2.7422 0.93359l-13.781-7.0117h0.003906c-1.1406-0.57422-1.8555-1.7422-1.8555-3.0156 0-1.2773 0.71484-2.4453 1.8555-3.0234l13.789-7c1.0195-0.51562 2.2656-0.11328 2.7891 0.90625 0.51953 1.0156 0.125 2.2617-0.89062 2.7891l-10.055 5.2188c-0.41406 0.21484-0.67578 0.64062-0.67578 1.1094 0 0.46484 0.26172 0.89062 0.67969 1.1016zm21.289 7.7969v0.003906c0 1.4336-1.1602 2.5977-2.5938 2.5977-0.6875 0-1.3477-0.27344-1.8359-0.76172-0.48828-0.48828-0.76172-1.1484-0.76172-1.8359v-17.805c0-0.6875 0.27344-1.3477 0.76172-1.8359 0.48828-0.48828 1.1484-0.76172 1.8359-0.76172 1.4336 0 2.5938 1.1641 2.5938 2.5977zm21.715-5.8906-13.785 7.0195 0.003907 0.003906c-0.64844 0.32812-1.4219 0.30078-2.0391-0.078125-0.62109-0.38281-0.99609-1.0547-0.99609-1.7812 0-0.77734 0.43359-1.4922 1.125-1.8516l10.066-5.2188c0.41406-0.21094 0.67188-0.63672 0.67188-1.1016s-0.25781-0.89062-0.67188-1.1055l-10.07-5.2188h0.003906c-1.0234-0.52344-1.4258-1.7773-0.90234-2.8008 0.52344-1.0195 1.7773-1.4219 2.8008-0.89844l13.789 7.0078h0.003907c1.1328 0.57812 1.8477 1.7422 1.8477 3.0117 0 1.2734-0.71484 2.4375-1.8477 3.0156z"/>
 </g>

    </g><g data-name="business_name" fill="#ffffff" data="id:164" transform="translate(83.30421469058338,215.00554408249445) scale(0.780887261372451)"><path d="M19.08,42.68l1.36,0l0,5.52l-19.24,0l0-1.04c0.84,0,1.68-0.32,1.72-1.12l0-24.28c0.04-0.8-0.8-1.12-1.72-1.12l0-1.04l7.72,0l0,1.04c-0.88,0-1.64,0.28-1.72,0.96l0.04,23.8l8.92,0c2.04,0,2.88-1.92,2.92-2.72z M7.2,21.64l0,0.12l0-0.12z M38.6,46.04c0,0.8,0.84,1.12,1.72,1.12l0,1.04l-3.68,0c-1.12,0-2-0.84-2.16-1.88c-0.64,1.16-2.4,2.48-5.36,2.48c-2.16,0-6.4-0.48-7.08-5.48l0.04,0.2c-0.44-4.36,2.6-6.32,6.92-6.88c1.96-0.28,3.76-0.24,5.24-0.12l0-3.12c0-3.76-4.76-3.6-5.6-3.16l-2.12,4.36c-0.36,0.84-1.2,1.44-2.2,1.44c-0.88,0-1.48-0.88-1.48-1.76c0-1.52,0.92-3,3.76-4.6c2.04-1.16,5.12-1.12,6.68-0.52c3.6,1.36,5.32,3.92,5.32,6.72l0,10.16z M30.6,46.2c1.56-0.08,3-0.88,3.8-1.52l-0.04-7.52c-4.28,0.68-8.56,1.56-8.56,5.28c0,3.08,2.4,3.88,4.8,3.76z M57.44,29.2c1.44,0.84,2.44,3.92,1.44,5.32s-3.32,1.08-3.68-0.08c-0.4-1.32-0.68-1.96-1-2.6c-1.32-0.56-3.16-0.4-4.24,0.8c-1.36,1.56-1.6,2.32-1.6,7.52l0,5.92c0,0.8,0.84,1.12,1.72,1.12l0,1.04l-7.76-0.04l0-1.04c0.88,0,1.72-0.32,1.72-1.12l0-13.32c0-0.8-0.84-1.12-1.72-1.12l0-1.04l1.72-0.4l4.32-1.6l0,3.32c0.64-1.56,2.08-2.44,3.36-3.12c1.4-0.76,3.52-0.52,5.04,0.12c0.24,0.08,0.48,0.2,0.68,0.32z M81.92,29.36c-0.88,0-2.52,0.04-3.56,0.88l0.12-0.12l-7.24,6.12l8.28,10.08l0-0.04c0.48,0.6,1.48,0.88,2,0.88l0,1.04l-6.64,0l-7.52-10.56l0,8.4c0,0.8,0.84,1.12,1.72,1.12l0,1.04l-7.8,0l0-1.04c0.88,0,1.72-0.32,1.72-1.12l0-22.96c0-0.8-0.84-1.12-1.72-1.12l0-1.04l1.72-0.4l4.4-1.6l0,17.56l7.08-6.36c0.44-0.8-0.64-0.76-1.48-0.76l0-1.04l8.92,0l0,1.04z M87.08,24.76c-1.56,0-2.88-1.24-2.88-2.8c0-1.6,1.32-2.8,2.88-2.8c1.52,0,2.84,1.2,2.84,2.8s-1.32,2.8-2.84,2.8z M89.64,46.04c0,0.8,0.84,1.12,1.72,1.12l0,1.04l-7.84,0l0-1.04c0.88,0,1.72-0.32,1.72-1.12l0-13.6c0-0.8-0.84-1.12-1.72-1.12l0-1.04l6.12-2l0,17.76z M113.36,46.04c0,0.8,0.84,1.12,1.72,1.12l0,1.04l-7.96,0l0-1.04c0.88,0,1.72-0.32,1.72-1.12l0-9.28c0-4.6-1.4-6.76-4.44-6.76c-2.64,0-4.4,2.44-4.4,3.12l0,12.92c0,0.8,0.84,1.12,1.72,1.12l0,1.04l-7.96,0l0-1.04c0.88,0,1.72-0.32,1.72-1.12l0-14.2c0-0.8-0.84-1.12-1.72-1.12l0-1.04l1.72-0.56l4.24-1.44l0,3.6c0.36-0.52,1.16-3,5.08-3.36c4.64-0.44,6.76,1.12,7.68,2.72c0.68,1.16,0.88,2.84,0.88,6.36l0,9.04z  M127.48,34.12c0-8.76,7.12-15.08,14.88-15.08c3.68,0,7.36,1.08,9.68,3.72l-0.04,5.16l-1.8,0c0.16-3.12-3.64-6.52-7.8-6.52c-4.8,0-9.36,4.64-9.36,12.72c0,7.12,4.16,12.12,9.36,12.12c4.12,0,8.24-2.84,7.8-6.4l1.84,0.04l0,5.56c-2.64,2.08-6.28,3.36-9.68,3.36c-8,0-14.88-6.24-14.88-14.68z M171,46.04c0,0.8,0.84,1.12,1.72,1.12l0,1.04l-3.68,0c-1.12,0-2-0.84-2.16-1.88c-0.64,1.16-2.4,2.48-5.36,2.48c-2.16,0-6.4-0.48-7.08-5.48l0.04,0.2c-0.44-4.36,2.6-6.32,6.92-6.88c1.96-0.28,3.76-0.24,5.24-0.12l0-3.12c0-3.76-4.76-3.6-5.6-3.16l-2.12,4.36c-0.36,0.84-1.2,1.44-2.2,1.44c-0.88,0-1.48-0.88-1.48-1.76c0-1.52,0.92-3,3.76-4.6c2.04-1.16,5.12-1.12,6.68-0.52c3.6,1.36,5.32,3.92,5.32,6.72l0,10.16z M163,46.2c1.56-0.08,3-0.88,3.8-1.52l-0.04-7.52c-4.28,0.68-8.56,1.56-8.56,5.28c0,3.08,2.4,3.88,4.8,3.76z M207.28,46.04c0,0.8,0.84,1.12,1.72,1.12l0,1.04l-7.96,0l0-1.04c0.88,0,1.72-0.32,1.72-1.12l0-10.08c0-3.36-1.76-5.52-4.16-5.52s-4.24,2.24-4.24,2.56l0,13.04c0,0.8,0.84,1.12,1.72,1.12l0,1.04l-7.96,0l0-1.04c0.88,0,1.72-0.32,1.72-1.12l0-8.92c0-4.36-1.36-6.64-4.48-6.64c-3.08,0-4.68,1.8-4.68,2.64l0,12.92c0,0.8,0.84,1.12,1.72,1.12l0,1.04l-7.68,0l0-1.04c0.88,0,1.72-0.32,1.72-1.12l0-14.2c0-0.8-0.84-1.12-1.72-1.12l0-1.04l1.72-0.52l3.96-1.32l0,3.84c0.36-0.52,2.36-3.44,5.96-3.8c4.24-0.44,6.28,2.28,7,3.96c0.88-1.68,2.88-3.56,5.96-3.96c5.8-0.76,7.96,3.12,7.96,6.48l0,11.68z M223.4,27.88c3.8,0.08,9,1.88,8.84,10.08c-0.16,7.44-4.32,10-8.04,10c-2.6,0-5.04-0.84-6.64-2.56l0,10.36c0,0.8,0.84,1.12,1.72,1.12l0,1.04l-7.88,0l0-1.04c0.88,0,1.72-0.32,1.72-1.12l0-23.6c0-0.8-0.84-1.12-1.72-1.12l0-1.04l1.72-0.4l3.72-1.56l0.6,2.28c1.56-1.56,2.44-2.52,5.96-2.44z M221.8,45.44c3.88,0,5.36-2.68,5.36-9.04c0-3.64-2-5.88-4.8-6c-2.68-0.12-3.96,1.04-4.8,2.04l-0.04,8.76c0,2.68-0.2,4.24,4.28,4.24z M255.2,36.24c1,9-5.04,12.36-8.84,12.48c-2.64,0.08-5.64-0.08-8-1.64l-0.96,1.12l-1.04,0l0-25.04c0-0.8-0.84-1.12-1.72-1.12l0-1.04l1.72-0.4l4.16-1.56l0,12.16c1.6-1.72,4.04-2.56,6.64-2.56c3.72,0,7.4,1.84,8.04,7.6z M244.76,47c3.88,0,5.64-2.88,5.64-9.04c0-4.8-2.28-6.56-5.08-6.8c-1.8-0.16-3.96,0.44-4.8,1.44l-0.04,8.68c0,2.68,0.68,5.72,4.28,5.72z M257.72,38.04c0,6.72,4.64,10.28,9.96,10.52c4.8,0.2,7.6-2.04,9.52-5.6l-0.8-0.72c-1.88,1.96-5.44,4.04-9.36,2.8c-3.4-1.04-4.56-4.24-4.8-6.56l14.76,0c0.12-2.24,0-3.12-0.8-5.16l0-0.04c-0.56-1.32-1.52-2.6-2.96-3.56c-0.24-0.16-0.48-0.28-0.76-0.4c-1.4-0.6-3.08-1.04-4.56-1c-5.28,0.16-10.2,4.24-10.2,9.72z M262.12,36.64c-0.08-1.72,0.36-3.84,2.04-5.28c1.52-1.28,4.32-1.4,5.96-0.72c2,0.84,2.96,3.4,2.88,6l-10.88,0z M285.72,46.04c0,0.8,0.84,1.12,1.72,1.12l0,1.04l-7.84,0l0-1.04c0.88,0,1.72-0.32,1.72-1.12l0-22.8c0-0.8-0.84-1.12-1.72-1.12l0-1.04l1.72-0.4l4.4-1.32l0,26.68z M295.96,46.04c0,0.8,0.84,1.12,1.72,1.12l0,1.04l-7.84,0l0-1.04c0.88,0,1.72-0.32,1.72-1.12l0-22.8c0-0.8-0.84-1.12-1.72-1.12l0-1.04l1.72-0.4l4.4-1.32l0,26.68z"/></g><g data-name="slogan" fill="#fdf6eb" data="id:163" transform="translate(94.22529911570565,259.38584455126374) scale(0.6164027298259563)"><path d="M12.12,48.28c-2.76,0-5.4-1.04-7.12-2.56c-1.8-1.56-2.96-3.64-3.2-5.68l2.88-0.8c0.32,1.72,1.2,3.16,2.64,4.36c1.4,1.2,3,1.8,4.8,1.8c1.68,0,3.24-0.4,4.48-1.28c1.24-0.84,2.04-2.28,2.04-4.04c0-2.04-1.08-3.36-2.44-4.16c-0.96-0.56-1.8-0.8-2.76-1l-3.84-0.76c-0.8-0.16-1.64-0.44-2.56-0.84c-0.92-0.44-1.72-0.96-2.4-1.64c-1.36-1.32-2.04-3-2.04-5.04c0-1.6,0.44-3.04,1.32-4.28c0.88-1.28,2-2.2,3.4-2.88c1.4-0.64,2.88-0.96,4.52-0.96c6.28,0,9.04,3.88,9.64,7l-2.8,0.88c-0.48-2.08-2.36-5.04-6.88-5.04c-3.12-0.08-6.16,2.12-6.12,5.16c0,2.24,1.4,4.04,4.24,4.6l3.68,0.72c2.48,0.48,4.4,1.32,5.68,2.56c0.88,0.8,1.52,1.72,1.92,2.68c0.4,1,0.6,1.88,0.6,2.68c0.04,5.12-4.28,8.64-9.68,8.52z M35.92,48.36c-1.84,0-3.6-0.48-5.16-1.36c-1.56-0.92-2.8-2.16-3.68-3.72c-0.92-1.56-1.36-3.28-1.36-5.16c0-2.92,0.96-5.4,2.96-7.36c1.96-2,4.4-3,7.32-3c5.64-0.12,10.36,4.64,10.28,10.24c0.08,5.76-4.64,10.48-10.36,10.36z M36,45.76c2.08,0,3.84-0.76,5.24-2.24c1.36-1.48,2.04-3.28,2.04-5.4s-0.68-3.96-2.08-5.52c-1.4-1.52-3.12-2.28-5.28-2.28c-2.08,0-3.84,0.76-5.2,2.24s-2.04,3.28-2.04,5.44c-0.08,4.12,3.08,7.84,7.32,7.76z M59.04,20.16c-0.8,0-1.52,0.24-2.2,0.8c-0.68,0.6-1.12,1.8-1.12,3.4l0,3.76l5.2,0l0,2.52l-5.2,0l0,17.36l-2.88,0l0-17.36l-3.84,0l0-2.52l3.84,0l0-3.68c0-2.24,0.56-3.92,1.64-5.12c1.12-1.16,2.6-1.72,4.44-1.72c0.76,0,1.48,0.12,2.16,0.36l0,2.44c-0.48-0.16-1.2-0.24-2.04-0.24z M71.8,48.16c-4.32,0-5.64-2.4-5.64-5.32l0-12.16l-3.68,0l0-2.56l3.68,0l0-5.72l2.88,0l0,5.72l5.04,0l0,2.56l-5.04,0l0,12.12c0,1.84,1.08,2.8,3.24,2.8c0.68,0,1.28-0.08,1.8-0.16l0,2.4c-0.64,0.2-1.4,0.32-2.28,0.32z M91.8,31.84l-5.28,16.16l-3.2,0l-6.64-19.88l3.04,0l5.24,16.48l0,0l5.4-16.48l2.96,0l5.4,16.52l0.04,0l5.28-16.52l3,0l-6.72,19.88l-3.2,0l-5.28-16.16l-0.04,0z M117.72,36.52l5.52,0l0-1.32c0-3.2-1.76-4.84-5.08-4.84c-1.6,0-2.96,0.52-3.76,1.32s-1.28,1.72-1.44,2.72l-2.8-0.6c0.04-1,1-2.96,2.8-4.4c1.2-0.92,3.12-1.64,5.28-1.64c3.64,0,6.04,1.36,7.24,4.12c0.4,0.92,0.6,2,0.6,3.28l0,5.6c0,3.32,0.12,5.76,0.32,7.24l-2.88,0c-0.16-0.88-0.28-2.04-0.28-3.48l0,0c-1.68,2.56-3.88,3.84-6.72,3.84c-1.96,0-3.6-0.56-4.8-1.68c-1.24-1.08-1.88-2.48-1.88-4.2l0-0.2c0-4.32,4.32-5.76,7.88-5.76z M123.24,39.6l0-0.68l-5.56,0c-1.16,0-2.24,0.2-3.24,0.68c-1,0.44-1.68,1.4-1.68,2.64c0,1.12,0.4,1.96,1.24,2.6c0.8,0.64,1.8,0.96,3.04,0.96c1.76,0,3.24-0.6,4.44-1.76c1.16-1.12,1.76-2.64,1.76-4.44z M132.4,28.12l2.84,0l0,3.92c0.96-1.96,2.56-3.28,4.08-3.84c0.76-0.28,1.56-0.4,2.36-0.4c0.44,0,0.76,0,0.96,0.08l0,3.08c-0.32-0.08-0.72-0.08-1.12-0.08c-4.72,0-6.2,3.88-6.2,7.4l0,9.72l-2.92,0l0-19.88z M164.12,38.96l-16.08,0c0.12,1.96,0.84,3.56,2.2,4.84c1.36,1.32,3,1.96,4.92,1.96c3,0,5.24-1.48,6.16-4.24l2.56,0.8c-0.56,1.88-1.64,3.36-3.24,4.44c-1.6,1.04-3.4,1.6-5.44,1.6c-1.88,0-3.6-0.48-5.16-1.4s-2.76-2.16-3.6-3.76c-0.88-1.56-1.32-3.28-1.32-5.16c0-1.8,0.4-3.48,1.24-5.04c0.8-1.6,1.96-2.84,3.48-3.8c1.48-0.96,3.16-1.44,4.96-1.44c1.96,0,3.68,0.44,5.12,1.36c1.44,0.88,2.52,2.12,3.2,3.64c0.72,1.52,1.04,3.24,1.04,5.24c0,0.2,0,0.52-0.04,0.96z M148.08,36.48l13.16,0c-0.2-1.84-0.88-3.32-2-4.48c-1.12-1.12-2.6-1.68-4.44-1.68c-1.72,0-3.16,0.6-4.44,1.8c-1.28,1.24-2.04,2.68-2.28,4.36z  M180.32,48l0-29.16l18.24,0l0,2.84l-15.16,0l0,10.08l13.88,0l0,2.84l-13.88,0l0,10.56l15.32,0l0,2.84l-18.4,0z M221.52,48l-2.92,0l0-11.56c0-1.84-0.44-3.28-1.4-4.4c-0.92-1.08-2.28-1.64-4.08-1.64c-1.72,0-3.16,0.6-4.28,1.8c-1.08,1.2-1.64,2.68-1.64,4.48l0,11.32l-2.92,0l0-19.88l2.84,0l0,3.64c1.6-2.68,3.88-4,6.88-4c2.36,0,4.2,0.72,5.56,2.16c1.28,1.48,1.96,3.4,1.96,5.8l0,12.28z M243.44,47.72l0-4.16c-1.8,3.04-4.36,4.52-7.68,4.52c-1.84,0-3.48-0.48-4.92-1.4s-2.52-2.16-3.28-3.68c-0.76-1.56-1.12-3.2-1.12-5.04c0-1.76,0.36-3.4,1.12-4.96c0.76-1.52,1.88-2.8,3.32-3.76c1.44-1,3.08-1.48,4.88-1.48c1.84,0,3.48,0.52,4.76,1.4c1.24,0.88,2.08,1.84,2.96,3.12l0-4.16l2.88,0l0,19.4c0,3.4-0.96,6-2.8,7.76c-1.88,1.76-4.4,2.68-7.56,2.68c-2.48,0-4.6-0.68-6.32-1.96c-1.72-1.32-2.8-2.92-3.16-4.88l2.64-0.88c0.48,2.04,2.32,5.16,6.8,5.16c2.12,0,3.84-0.56,5.24-1.76c1.4-1.16,2.24-3.24,2.24-5.92z M236.36,45.52c2.04,0,3.72-0.72,5.08-2.24c1.36-1.48,2.04-3.28,2.04-5.36c0.08-3.88-3.12-7.64-7.12-7.56c-2.16,0-3.84,0.72-5.08,2.16c-1.28,1.44-1.88,3.28-1.88,5.48c-0.08,4.08,2.68,7.56,6.96,7.52z M252.84,22.56c-0.4-0.44-0.64-0.96-0.64-1.56s0.24-1.12,0.64-1.56c0.4-0.4,0.96-0.64,1.56-0.64s1.12,0.24,1.52,0.64c0.44,0.44,0.64,0.96,0.64,1.56s-0.2,1.12-0.64,1.56c-0.4,0.4-0.92,0.64-1.52,0.64s-1.16-0.24-1.56-0.64z M252.92,48l0-19.88l2.92,0l0,19.88l-2.92,0z M279.64,48l-2.92,0l0-11.56c0-1.84-0.44-3.28-1.4-4.4c-0.92-1.08-2.28-1.64-4.08-1.64c-1.72,0-3.16,0.6-4.28,1.8c-1.08,1.2-1.64,2.68-1.64,4.48l0,11.32l-2.92,0l0-19.88l2.84,0l0,3.64c1.6-2.68,3.88-4,6.88-4c2.36,0,4.2,0.72,5.56,2.16c1.28,1.48,1.96,3.4,1.96,5.8l0,12.28z M303.52,38.96l-16.08,0c0.12,1.96,0.84,3.56,2.2,4.84c1.36,1.32,3,1.96,4.92,1.96c3,0,5.24-1.48,6.16-4.24l2.56,0.8c-0.56,1.88-1.64,3.36-3.24,4.44c-1.6,1.04-3.4,1.6-5.44,1.6c-1.88,0-3.6-0.48-5.16-1.4s-2.76-2.16-3.6-3.76c-0.88-1.56-1.32-3.28-1.32-5.16c0-1.8,0.4-3.48,1.24-5.04c0.8-1.6,1.96-2.84,3.48-3.8c1.48-0.96,3.16-1.44,4.96-1.44c1.96,0,3.68,0.44,5.12,1.36c1.44,0.88,2.52,2.12,3.2,3.64c0.72,1.52,1.04,3.24,1.04,5.24c0,0.2,0,0.52-0.04,0.96z M287.48,36.48l13.16,0c-0.2-1.84-0.88-3.32-2-4.48c-1.12-1.12-2.6-1.68-4.44-1.68c-1.72,0-3.16,0.6-4.44,1.8c-1.28,1.24-2.04,2.68-2.28,4.36z M326.12,38.96l-16.08,0c0.12,1.96,0.84,3.56,2.2,4.84c1.36,1.32,3,1.96,4.92,1.96c3,0,5.24-1.48,6.16-4.24l2.56,0.8c-0.56,1.88-1.64,3.36-3.24,4.44c-1.6,1.04-3.4,1.6-5.44,1.6c-1.88,0-3.6-0.48-5.16-1.4s-2.76-2.16-3.6-3.76c-0.88-1.56-1.32-3.28-1.32-5.16c0-1.8,0.4-3.48,1.24-5.04c0.8-1.6,1.96-2.84,3.48-3.8c1.48-0.96,3.16-1.44,4.96-1.44c1.96,0,3.68,0.44,5.12,1.36c1.44,0.88,2.52,2.12,3.2,3.64c0.72,1.52,1.04,3.24,1.04,5.24c0,0.2,0,0.52-0.04,0.96z M310.08,36.48l13.16,0c-0.2-1.84-0.88-3.32-2-4.48c-1.12-1.12-2.6-1.68-4.44-1.68c-1.72,0-3.16,0.6-4.44,1.8c-1.28,1.24-2.04,2.68-2.28,4.36z M331.16,28.12l2.84,0l0,3.92c0.96-1.96,2.56-3.28,4.08-3.84c0.76-0.28,1.56-0.4,2.36-0.4c0.44,0,0.76,0,0.96,0.08l0,3.08c-0.32-0.08-0.72-0.08-1.12-0.08c-4.72,0-6.2,3.88-6.2,7.4l0,9.72l-2.92,0l0-19.88z"/></g></svg>